<svg xmlns="http://www.w3.org/2000/svg" xml:space="preserve" width="16" height="16" data-version="2">
    <path d="M5.87 2.98h.06l2.01 4.77L9.7 3.02h1.19l-2.86 7.35h-.14l-2-4.76-1.99 4.75h-.14L.9 3.02h1.19l1.76 4.73z" paint-order="stroke"/>
    <path d="M12.27 10.47q-.42 0-.83-.1-.41-.11-.73-.26-.32-.16-.48-.32l.53-.95q.11.09.35.24.23.14.54.25.31.11.62.11.51 0 .86-.24.34-.24.34-.7 0-.38-.2-.63t-.52-.44q-.33-.19-.7-.36-.38-.18-.72-.4-.39-.26-.68-.69-.29-.43-.29-1.11 0-.67.31-1.1.3-.43.81-.64.5-.22 1.1-.22.48 0 .82.1.34.1.57.24.23.14.36.25l-.53.91q-.17-.18-.51-.33-.34-.16-.76-.16-.49 0-.78.23-.29.22-.29.66 0 .39.26.67.26.27.67.5.4.22.83.45.43.23.76.54.27.24.46.6t.19.81q0 .68-.31 1.15-.32.47-.85.71-.53.23-1.2.23" paint-order="stroke"/>
</svg>
