<svg xmlns="http://www.w3.org/2000/svg" version="1.1" xmlns:xlink="http://www.w3.org/1999/xlink"  viewBox="0 0 500 92"><svg xml:space="preserve" data-version="2" data-id="lg_wJI0dXDSWlI5qsjGev" viewBox="0 0 488 92" x="0" y="0"><rect width="100%" height="100%" fill="transparent"></rect><path d="M77.88 49.215h.3l10.05 23.85 8.8-23.65h5.95l-14.3 36.75h-.7l-10-23.8-9.95 23.75h-.7l-14.3-36.7h5.95l8.8 23.65zm36.9 37.45q-4.3 0-7-1.68-2.7-1.67-3.95-4.42t-1.25-5.85q0-3.75 1.53-6.45 1.52-2.7 4.22-4.18 2.7-1.47 6.1-1.47 5.45 0 7.95 3.02 2.5 3.03 2.5 8.13 0 1.35-.15 2.8h-16.5q.55 3.1 2.23 4.42 1.67 1.33 4.47 1.33 2.7 0 4.25-.5 1.55-.5 2.55-1l1.65 3.85q-1 .65-3.1 1.32-2.1.68-5.5.68m-6.55-13.85h11.4q.05-3.25-1.45-4.45-1.5-1.2-3.9-1.2-2.5 0-4.07 1.32-1.58 1.33-1.98 4.33m26.1 13.35h-5.6v-22.95h5.6zm-2.8-27.25q-1.55 0-2.57-1.05-1.03-1.05-1.03-2.6 0-1.4 1.03-2.4 1.02-1 2.57-1 1.55 0 2.58 1 1.02 1 1.02 2.4 0 1.55-1.02 2.6-1.03 1.05-2.58 1.05m14.15 31.85h-5.35v-23.15h-2.4v-4.4h2.4v-.9q0-2.4.63-4.8.62-2.4 2-4.35 1.37-1.95 3.65-3.15 2.27-1.2 5.57-1.2 3.7 0 5.7 1.35t2.8 3.42q.8 2.08.8 4.23 0 2.6-1.37 4.67-1.38 2.08-3.68 3.38 2.35.5 3.98 1.87 1.62 1.38 2.47 3.3.85 1.93.85 4.13 0 2-.67 3.95-.68 1.95-2.23 3.55-1.55 1.6-4.07 2.55-2.53.95-6.28.95h-1.8v-4.65h2.35q2.8 0 4.38-1.03 1.57-1.02 2.2-2.5.62-1.47.62-2.87 0-2-.97-3.5-.98-1.5-2.63-2.35-1.65-.85-3.7-.85h-1.25v-3.95q2.35 0 3.75-1t2.05-2.45q.65-1.45.65-2.8 0-1.15-.32-2.25-.33-1.1-1.23-1.83-.9-.72-2.6-.72-3.2 0-4.75 2.7-1.55 2.7-1.55 8.55zm32.25-4.1q-4.3 0-7-1.68-2.7-1.67-3.95-4.42t-1.25-5.85q0-3.75 1.53-6.45 1.52-2.7 4.22-4.18 2.7-1.47 6.1-1.47 5.45 0 7.95 3.02 2.5 3.03 2.5 8.13 0 1.35-.15 2.8h-16.5q.55 3.1 2.23 4.42 1.67 1.33 4.47 1.33 2.7 0 4.25-.5 1.55-.5 2.55-1l1.65 3.85q-1 .65-3.1 1.32-2.1.68-5.5.68m-6.55-13.85h11.4q.05-3.25-1.45-4.45-1.5-1.2-3.9-1.2-2.5 0-4.07 1.32-1.58 1.33-1.98 4.33m25.5 13.35h-5.4v-22.95h5.3l.05 4.2q.9-2.05 2.93-3.43 2.02-1.37 4.87-1.37 3.7 0 5.55 1.52 1.85 1.53 2.48 4.33.62 2.8.62 6.65v11.05h-5.4v-10.9q0-4-.77-6.1-.78-2.1-3.58-2.1-1.45 0-3 .9t-2.6 2.6q-1.05 1.7-1.05 4.2zm34.75.5q-2 0-3.65-.68-1.65-.67-2.77-1.72-1.13-1.05-1.68-2.15l-.1 4.05h-5.2v-36.75h5.3v14.15l-.25 3.9q.55-1.3 1.85-2.4 1.3-1.1 3.08-1.78 1.77-.67 3.77-.67 3.45 0 5.95 1.52 2.5 1.53 3.85 4.25 1.35 2.73 1.35 6.33 0 3.75-1.6 6.42-1.6 2.68-4.2 4.1-2.6 1.43-5.7 1.43m-.9-4.5q3.4 0 5.08-2.15 1.67-2.15 1.67-5.3 0-3.25-1.67-5.38-1.68-2.12-5.08-2.12-1.8 0-3.35.87-1.55.88-2.47 2.48-.93 1.6-.93 3.8v.35q.05 2.2.95 3.9.9 1.7 2.43 2.62 1.52.93 3.37.93m26.8 4.5q-4.3 0-7-1.68-2.7-1.67-3.95-4.42t-1.25-5.85q0-3.75 1.53-6.45 1.52-2.7 4.22-4.18 2.7-1.47 6.1-1.47 5.45 0 7.95 3.02 2.5 3.03 2.5 8.13 0 1.35-.15 2.8h-16.5q.55 3.1 2.23 4.42 1.67 1.33 4.47 1.33 2.7 0 4.25-.5 1.55-.5 2.55-1l1.65 3.85q-1 .65-3.1 1.32-2.1.68-5.5.68m-6.55-13.85h11.4q.05-3.25-1.45-4.45-1.5-1.2-3.9-1.2-2.5 0-4.07 1.32-1.58 1.33-1.98 4.33m25.55 13.35h-5.2v-36.75h5.15v20.15l-.1 3.9 8.75-10.25h6.65l-8.65 9.6 8.7 13.35h-6.35l-4.65-7.5-1.3-2.55-3 3.25zm36.25.5q-2.1 0-4.15-.53-2.05-.52-3.65-1.3-1.6-.77-2.4-1.57l2.65-4.75q.55.45 1.73 1.17 1.17.73 2.72 1.28 1.55.55 3.1.55 2.55 0 4.28-1.2 1.72-1.2 1.72-3.5 0-1.9-1-3.15t-2.62-2.2q-1.63-.95-3.5-1.83-1.88-.87-3.58-1.97-1.95-1.3-3.4-3.45-1.45-2.15-1.45-5.55 0-3.35 1.53-5.5 1.52-2.15 4.05-3.23 2.52-1.07 5.52-1.07 2.4 0 4.1.5 1.7.5 2.85 1.2 1.15.7 1.8 1.25l-2.65 4.55q-.85-.9-2.55-1.68-1.7-.77-3.8-.77-2.45 0-3.9 1.12-1.45 1.13-1.45 3.33 0 1.95 1.3 3.32 1.3 1.38 3.33 2.5 2.02 1.13 4.17 2.28t3.8 2.7q1.35 1.2 2.3 3 .95 1.8.95 4.05 0 3.4-1.57 5.75-1.58 2.35-4.23 3.52-2.65 1.18-6 1.18m25.95 0q-3.6 0-6.32-1.6-2.73-1.6-4.23-4.35-1.5-2.75-1.5-6.1 0-3.3 1.48-6.03 1.47-2.72 4.17-4.35 2.7-1.62 6.4-1.62t6.4 1.62q2.7 1.63 4.15 4.35 1.45 2.73 1.45 6.03 0 3.35-1.47 6.1-1.48 2.75-4.18 4.35-2.7 1.6-6.35 1.6m.15-4.4q3 0 4.63-2.2 1.62-2.2 1.62-5.35 0-2.15-.8-3.88-.8-1.72-2.27-2.77-1.48-1.05-3.48-1.05-1.95 0-3.35 1.05-1.4 1.05-2.17 2.77-.78 1.73-.78 3.88 0 2.1.85 3.82.85 1.73 2.33 2.73 1.47 1 3.42 1m22.85 3.9h-5.3v-18.65h-3.7v-4.3h3.7v-4.95q0-4.45 2.15-6.95t6.4-2.5q1.35 0 2.43.4 1.07.4 1.42.55l-1.05 5.1q-.25-.3-.97-.73-.73-.42-1.68-.42-.7 0-1.47.27-.78.28-1.33 1.2-.55.93-.6 2.88v5.15h5.4v4.3h-5.4zm15.9 0h-5.45v-18.55h-4.05v-4.4h4.05v-9.35l5.45-1.2v10.55h5.3v4.4h-5.3z"></path><path d="M406.88 86.165h-.95l-6.8-12.75-6.8 12.75h-.95l-9.65-22.95h5.8l4.95 13.35 6.55-13.35h.2l6.6 13.25 4.95-13.25h5.7zm21.25.5q-3.05 0-5.67-1.45-2.63-1.45-4.23-4.15-1.6-2.7-1.6-6.45 0-3.6 1.38-6.3 1.37-2.7 3.9-4.2 2.52-1.5 6.02-1.5 2.1 0 3.83.72 1.72.73 2.9 1.75 1.17 1.03 1.57 1.98l.1-3.85h5.15v22.95h-5.1l-.1-4.05q-.5 1.1-1.67 2.15-1.18 1.05-2.83 1.72-1.65.68-3.65.68m.9-4.5q1.85 0 3.38-.88 1.52-.87 2.45-2.47.92-1.6.92-3.8v-.35q0-2.25-.92-3.93-.93-1.67-2.45-2.6-1.53-.92-3.38-.92-3.35 0-5.02 2.15-1.68 2.15-1.68 5.3 0 3.2 1.68 5.35 1.67 2.15 5.02 2.15m22.75 4h-5.4v-22.95h5.4v4.5q.8-2.25 2.58-3.68 1.77-1.42 4.12-1.42 1.6 0 2.2.3l-.75 5.45q-.45-.3-1.95-.3-1.25 0-2.7.55-1.45.55-2.47 1.92-1.03 1.38-1.03 3.83zm21.35.5q-4.3 0-7-1.68-2.7-1.67-3.95-4.42t-1.25-5.85q0-3.75 1.53-6.45 1.52-2.7 4.22-4.18 2.7-1.47 6.1-1.47 5.45 0 7.95 3.02 2.5 3.03 2.5 8.13 0 1.35-.15 2.8h-16.5q.55 3.1 2.23 4.42 1.67 1.33 4.47 1.33 2.7 0 4.25-.5 1.55-.5 2.55-1l1.65 3.85q-1 .65-3.1 1.32-2.1.68-5.5.68m-6.55-13.85h11.4q.05-3.25-1.45-4.45-1.5-1.2-3.9-1.2-2.5 0-4.07 1.32-1.58 1.33-1.98 4.33"></path><path fill="#01ff70" stroke="orange" stroke-width="4.742" d="M4.77 48.557h32.514m9.573-13.844V1.235m-8.411 38.229L15.078 16.096m25.896 39.807L17.606 79.27M78.84 14.72 54.86 38.7"></path></svg></svg>