<?xml version="1.0" encoding="UTF-8" standalone="no"?>
<svg
   viewBox="0 0 410.00001 150"
   version="1.1"
   id="svg23"
   sodipodi:docname="logo.svg"
   inkscape:version="1.2.1 (9c6d41e410, 2022-07-14, custom)"
   width="410"
   height="150"
   xmlns:inkscape="http://www.inkscape.org/namespaces/inkscape"
   xmlns:sodipodi="http://sodipodi.sourceforge.net/DTD/sodipodi-0.dtd"
   xmlns="http://www.w3.org/2000/svg"
   xmlns:svg="http://www.w3.org/2000/svg"
   xmlns:rdf="http://www.w3.org/1999/02/22-rdf-syntax-ns#"
   xmlns:cc="http://creativecommons.org/ns#"
   xmlns:dc="http://purl.org/dc/elements/1.1/">
  <sodipodi:namedview
     id="namedview25"
     pagecolor="#ffffff"
     bordercolor="#666666"
     borderopacity="1.0"
     inkscape:showpageshadow="2"
     inkscape:pageopacity="0.0"
     inkscape:pagecheckerboard="0"
     inkscape:deskcolor="#d1d1d1"
     showgrid="false"
     inkscape:zoom="1.72581"
     inkscape:cx="193.53231"
     inkscape:cy="88.074585"
     inkscape:window-width="2560"
     inkscape:window-height="1371"
     inkscape:window-x="0"
     inkscape:window-y="0"
     inkscape:window-maximized="1"
     inkscape:current-layer="svg23" />
  <defs
     id="defs9">
    <style
       id="style2">.cls-1{fill:url(#Unbenannter_Verlauf_30);}.cls-2{font-size:50.37px;fill:#2e3470;font-family:Avenir-Light, Avenir;font-weight:300;}.cls-3{font-family:Avenir-Black, Avenir;font-weight:800;}</style>
    <linearGradient
       id="Unbenannter_Verlauf_30"
       y1="89.68"
       x2="122.77"
       y2="89.68"
       gradientUnits="userSpaceOnUse"
       gradientTransform="matrix(1.0344833,0,0,0.83630684,0,-2.1793899e-6)">
      <stop
         offset="0.06"
         stop-color="#13a7d4"
         id="stop4" />
      <stop
         offset="1"
         stop-color="#94c23d"
         id="stop6" />
    </linearGradient>
  </defs>
  <title
     id="title11">RealMetrics-Logo</title>
  <path
     class="cls-1"
     d="M 62.58624,-2.1793899e-6 42.258643,17.294823 26.017255,4.3404299 V 31.102249 L 0,53.256017 V 149.99999 H 5.0482785 V 54.886815 L 26.017255,37.040028 V 149.99999 H 127.00351 V 52.603698 Z M 31.034499,14.100131 l 7.717245,6.155218 -7.717245,6.565009 z M 75.672453,145.91045 H 54.424166 v -30.21577 h 21.248287 z m 46.282787,0 H 80.689697 V 111.62187 H 49.375888 v 34.28858 H 31.034499 V 32.741411 l 11.379316,-9.61753 45.879335,36.621877 v 42.852362 h 5.048278 V 58.031329 L 45.858645,20.163355 62.658653,5.8541448 121.95524,54.276311 Z"
     id="path13"
     style="fill:url(#Unbenannter_Verlauf_30);stroke-width:0.930132" />
  <g
     aria-label="REAL METRICS"
     id="text19"
     class="cls-2"
     style="font-weight:300;font-size:50.37px;font-family:Avenir-Light, Avenir;fill:#2e3470"
     transform="matrix(1.0344833,0,0,1.0394559,10.000004,-36.436815)">
    <path
       d="m 161.08362,77.773911 q 1.52487,0.541084 2.95137,2.311904 1.00838,1.278926 2.87758,4.869756 l 5.1403,10.034648 h -2.63164 l -5.23867,-10.083838 q -2.04136,-3.95975 -3.91056,-5.238676 -1.91839,-1.278926 -5.18949,-1.278926 h -6.66517 v 16.60144 h -2.45947 V 58.270293 h 9.96086 q 5.63219,0 8.4114,2.631636 2.7792,2.631636 2.7792,7.944096 0,3.418667 -1.45109,5.755166 -1.3773,2.28731 -4.57462,3.17272 z m -12.66628,-17.48685 v 16.060356 h 8.11626 q 3.93515,0 5.95192,-2.041362 2.01677,-2.041363 2.01677,-6.025708 0,-3.959751 -2.01677,-5.976519 -2.01677,-2.016767 -5.95192,-2.016767 z"
       id="path244" />
    <path
       d="m 180.88238,58.270293 h 20.75794 v 2.041362 h -18.24928 v 14.092778 h 17.48685 v 1.992173 h -17.48685 v 16.60144 h 18.69199 v 1.992173 h -21.20065 z"
       id="path246" />
    <path
       d="m 223.6772,60.75436 -7.87032,20.65957 h 15.61766 z m -1.57407,-2.484067 h 3.22191 l 14.04359,36.719926 h -2.8038 l -4.37786,-11.534926 h -17.14252 l -4.35327,11.534926 h -2.60704 z"
       id="path248" />
    <path
       d="m 247.18976,58.270293 h 2.45947 v 34.703159 h 17.88037 v 2.016767 h -20.33984 z"
       id="path250" />
    <path
       d="m 144.3838,118.71028 h 12.05142 l 8.36221,19.65119 8.41139,-19.65119 h 12.02682 v 36.71993 h -8.95248 v -26.85744 l -8.46058,19.79875 h -6.00112 l -8.46058,-19.79875 v 26.85744 h -8.97708 z"
       id="path252" />
    <path
       d="m 194.50785,118.71028 h 25.55392 v 7.15707 h -16.08495 v 6.83733 h 15.12576 v 7.15706 h -15.12576 v 8.4114 h 16.62604 v 7.15707 h -26.09501 z"
       id="path254" />
    <path
       d="m 224.53802,118.71028 h 33.84234 v 7.15707 h -12.17439 v 29.56286 H 236.737 v -29.56286 h -12.19898 z"
       id="path256" />
    <path
       d="m 276.72802,134.99199 q 2.97596,0 4.25489,-1.10676 1.30352,-1.10677 1.30352,-3.64002 0,-2.50867 -1.30352,-3.59083 -1.27893,-1.08217 -4.25489,-1.08217 h -3.98435 v 9.41978 z m -3.98435,6.5422 v 13.89602 h -9.46897 v -36.71993 h 14.4617 q 7.25545,0 10.62492,2.43488 3.39408,2.43488 3.39408,7.69815 0,3.64002 -1.77082,5.97652 -1.74623,2.33649 -5.28787,3.44326 1.94298,0.4427 3.46786,2.01677 1.54946,1.54946 3.12353,4.72218 l 5.14029,10.42817 h -10.08383 l -4.47624,-9.12465 q -1.35271,-2.75461 -2.75461,-3.76299 -1.37731,-1.00838 -3.68921,-1.00838 z"
       id="path258" />
    <path
       d="m 302.06059,118.71028 h 9.46897 v 36.71993 h -9.46897 z"
       id="path260" />
    <path
       d="m 349.92193,153.41344 q -2.60704,1.35271 -5.43544,2.04136 -2.82839,0.68865 -5.90273,0.68865 -9.17383,0 -14.53548,-5.1157 -5.36165,-5.1403 -5.36165,-13.92061 0,-8.80492 5.36165,-13.92062 5.36165,-5.1403 14.53548,-5.1403 3.07434,0 5.90273,0.68866 2.8284,0.68865 5.43544,2.04136 v 7.59977 q -2.63164,-1.79542 -5.18949,-2.63164 -2.55785,-0.83622 -5.38624,-0.83622 -5.06652,0 -7.9687,3.24651 -2.90217,3.2465 -2.90217,8.95248 0,5.68138 2.90217,8.92788 2.90218,3.2465 7.9687,3.2465 2.82839,0 5.38624,-0.83622 2.55785,-0.83622 5.18949,-2.63163 z"
       id="path262" />
    <path
       d="m 384.25617,119.86623 v 7.77194 q -3.02515,-1.35271 -5.90273,-2.04137 -2.87758,-0.68865 -5.43543,-0.68865 -3.39408,0 -5.01733,0.9346 -1.62325,0.9346 -1.62325,2.90218 0,1.47568 1.08217,2.3119 1.10676,0.81163 3.98434,1.4019 l 4.03354,0.81163 q 6.12408,1.22973 8.70653,3.7384 2.58245,2.50866 2.58245,7.13247 0,6.07489 -3.61543,9.05086 -3.59083,2.95136 -10.99384,2.95136 -3.49245,0 -7.0095,-0.66405 -3.51704,-0.66406 -7.03409,-1.96758 v -7.99329 q 3.51705,1.8692 6.78815,2.8284 3.29569,0.93459 6.34544,0.93459 3.09893,0 4.74678,-1.03297 1.64784,-1.03298 1.64784,-2.95137 0,-1.72163 -1.13135,-2.65623 -1.10677,-0.9346 -4.45165,-1.67244 l -3.66461,-0.81163 q -5.50922,-1.18055 -8.06707,-3.76299 -2.53326,-2.58245 -2.53326,-6.96031 0,-5.48462 3.54164,-8.43599 3.54164,-2.95137 10.18222,-2.95137 3.02515,0 6.22246,0.4673 3.19732,0.44271 6.61598,1.35271 z"
       id="path264" />
  </g>
  <metadata
     id="metadata359">
    <rdf:RDF>
      <cc:Work
         rdf:about="">
        <dc:title>RealMetrics-Logo</dc:title>
      </cc:Work>
    </rdf:RDF>
  </metadata>
</svg>
