<svg width="851.129" height="192" viewBox="0 0 225.195 50.8" xmlns="http://www.w3.org/2000/svg"><path class="cls-1" d="M7.851 15.547V50.8h-16.64V15.547ZM27.81 5.187V50.8H11.17V5.187Zm19.958 5.18V50.8H31.136V10.367ZM67.733 0v50.8H51.102V0Z" transform="translate(8.788)" style="fill:#4c4c4c;fill-opacity:1"/><path d="M98.468 38.367q-2.759 0-5.352-.728-2.56-.761-4.122-1.952l1.828-4.035q1.496 1.091 3.557 1.753 2.062.661 4.123.661 2.293 0 3.39-.661 1.098-.695 1.098-1.82 0-.827-.665-1.356-.632-.562-1.662-.893-.998-.33-2.726-.728-2.66-.628-4.355-1.257-1.696-.628-2.926-2.017-1.197-1.39-1.197-3.705 0-2.018 1.097-3.639 1.097-1.654 3.291-2.613 2.228-.96 5.42-.96 2.227 0 4.354.53 2.128.53 3.724 1.522l-1.663 4.068q-3.224-1.82-6.449-1.82-2.26 0-3.358.729-1.063.727-1.063 1.918 0 1.191 1.23 1.786 1.263.563 3.823 1.125 2.66.629 4.355 1.257 1.695.629 2.892 1.985 1.23 1.356 1.23 3.672 0 1.984-1.13 3.638-1.097 1.621-3.325 2.58-2.227.96-5.419.96zM124.1 20.173h4.986l-8.078 18.888q-1.23 3.076-3.059 4.333-1.795 1.257-4.355 1.257-1.396 0-2.759-.43t-2.227-1.19l1.895-3.672q.598.53 1.363.827.798.298 1.562.298 1.064 0 1.729-.53.665-.496 1.197-1.687l.066-.165-7.746-17.929h5.353l5.02 12.074zm12.3 17.797h-5.186V13.425h5.186zm12.034-18.061q4.156 0 6.383 1.984 2.227 1.952 2.227 5.922V37.97h-4.853v-2.217q-1.463 2.481-5.452 2.481-2.061 0-3.59-.694-1.497-.695-2.294-1.919-.798-1.224-.798-2.779 0-2.48 1.861-3.903 1.895-1.422 5.818-1.422h4.122q0-1.687-1.03-2.58-1.03-.927-3.092-.927-1.43 0-2.826.464-1.363.43-2.327 1.19l-1.861-3.605q1.462-1.026 3.49-1.588 2.061-.562 4.222-.562zm-.399 14.852q1.33 0 2.36-.595 1.031-.629 1.463-1.82v-1.82h-3.557q-3.191 0-3.191 2.085 0 .992.764 1.588.798.562 2.161.562zm27.36-14.588h4.92v14.82q0 4.895-2.56 7.277-2.56 2.381-7.48 2.381-2.593 0-4.92-.628-2.327-.629-3.856-1.82l2.061-3.704q1.13.926 2.86 1.455 1.728.563 3.457.563 2.692 0 3.956-1.224 1.296-1.191 1.296-3.639v-.76q-2.028 2.216-5.651 2.216-2.46 0-4.522-1.059-2.027-1.092-3.224-3.043-1.197-1.952-1.197-4.499 0-2.547 1.197-4.499 1.197-1.951 3.224-3.01 2.062-1.091 4.522-1.091 3.89 0 5.917 2.547zm-4.887 12.703q2.061 0 3.358-1.191 1.33-1.224 1.33-3.176 0-1.951-1.33-3.142-1.297-1.224-3.358-1.224t-3.39 1.224q-1.33 1.19-1.33 3.142t1.33 3.176q1.329 1.19 3.39 1.19zm23.138 5.358q-2.826 0-5.086-1.158-2.228-1.19-3.491-3.274t-1.263-4.73q0-2.647 1.263-4.73 1.263-2.085 3.49-3.242 2.261-1.191 5.087-1.191 2.826 0 5.053 1.19 2.227 1.158 3.49 3.242 1.264 2.084 1.264 4.73 0 2.647-1.263 4.73-1.264 2.085-3.49 3.275-2.228 1.158-5.054 1.158zm0-4.234q1.995 0 3.258-1.323 1.296-1.356 1.296-3.606 0-2.249-1.296-3.572-1.263-1.356-3.258-1.356t-3.291 1.356q-1.297 1.323-1.297 3.572 0 2.25 1.297 3.606Q191.65 34 193.646 34Zm24.135-14.091q3.325 0 5.352 1.984 2.062 1.985 2.062 5.888V37.97h-5.187v-9.395q0-2.117-.93-3.142-.931-1.059-2.693-1.059-1.962 0-3.125 1.224-1.164 1.191-1.164 3.573v8.799h-5.186V20.173h4.954v2.084q1.03-1.124 2.56-1.72 1.529-.628 3.357-.628z" style="fill:#4c4c4c;fill-opacity:1" aria-label="Sylagon" class="cls-2"/></svg>